<svg width="32" height="32" viewBox="0 0 32 32" fill="none" xmlns="http://www.w3.org/2000/svg">
<path d="M12.9375 16.0001C12.9375 17.6915 14.3086 19.0626 16 19.0626C17.6914 19.0626 19.0625 17.6915 19.0625 16.0001C19.0625 14.3087 17.6914 12.9376 16 12.9376C14.3086 12.9376 12.9375 14.3087 12.9375 16.0001Z" fill="#656565"/>
<path d="M8.8359 10.581C8.98317 10.1819 9.21801 9.82094 9.52315 9.52456C9.81948 9.21937 10.1805 8.98452 10.5796 8.83731C10.9033 8.71163 11.3896 8.56194 12.2854 8.52119C13.2544 8.477 13.5449 8.46744 15.998 8.46744C18.4514 8.46744 18.7419 8.47675 19.7106 8.52094C20.6064 8.56194 21.093 8.71156 21.4165 8.83731C21.8156 8.98447 22.1766 9.21932 22.4729 9.52456C22.7781 9.82095 23.013 10.1819 23.1604 10.581C23.2861 10.9047 23.4358 11.3913 23.4765 12.2871C23.5207 13.2558 23.5303 13.5463 23.5303 15.9997C23.5303 18.4528 23.5207 18.7433 23.4765 19.7123C23.4358 20.6081 23.2861 21.0944 23.1604 21.4181C23.0131 21.8172 22.7783 22.1782 22.4731 22.4746C22.1768 22.7798 21.8158 23.0146 21.4167 23.1618C21.093 23.2877 20.6064 23.4374 19.7106 23.4782C18.7419 23.5224 18.4516 23.5317 15.9983 23.5317C13.5446 23.5317 13.2541 23.5224 12.2856 23.4782C11.3899 23.4374 10.9033 23.2877 10.5796 23.1618C10.1833 23.009 9.82348 22.7749 9.52317 22.4745C9.22286 22.1742 8.98874 21.8144 8.8359 21.4181C8.71021 21.0944 8.56052 20.6081 8.51952 19.7123C8.47534 18.7433 8.46602 18.4528 8.46602 15.9997C8.46602 13.5463 8.47534 13.2558 8.51952 12.2871C8.56027 11.3913 8.70996 10.9047 8.8359 10.581ZM15.998 20.7172C18.6037 20.7172 20.716 18.6051 20.716 15.9994C20.716 13.3937 18.6037 11.2817 15.998 11.2817C13.3925 11.2817 11.2803 13.3937 11.2803 15.9994C11.2803 18.6051 13.3925 20.7172 15.998 20.7172ZM11.0937 12.1977C11.7026 12.1977 12.1962 11.704 12.1962 11.0952C12.1962 10.4864 11.7026 9.99263 11.0937 9.99263C10.4848 9.99263 9.99121 10.4863 9.99121 11.0951C9.99146 11.704 10.4848 12.1977 11.0937 12.1977Z" fill="#656565"/>
<path d="M16 0C24.8352 0 32 7.16481 32 16C32 24.8352 24.8352 32 16 32C7.16481 32 0 24.8352 0 16C0 7.16481 7.16481 0 16 0ZM6.86794 19.7878C6.91231 20.7659 7.06787 21.4336 7.29494 22.0181C7.53097 22.6284 7.89191 23.1827 8.35463 23.6454C8.81734 24.1081 9.37162 24.469 9.98194 24.7051C10.5662 24.9321 11.2341 25.0874 12.2119 25.1321C13.1916 25.1768 13.5046 25.1875 15.9998 25.1875C18.4951 25.1875 18.8079 25.1768 19.7879 25.1321C20.7656 25.0874 21.4336 24.9321 22.0179 24.7051C22.631 24.4744 23.1864 24.1127 23.6453 23.6453C24.1126 23.1864 24.4742 22.6311 24.7048 22.0181C24.9319 21.4338 25.0874 20.7659 25.1318 19.7881C25.177 18.8081 25.1875 18.4951 25.1875 16C25.1875 13.5049 25.177 13.1919 25.1321 12.2122C25.0877 11.2341 24.9324 10.5664 24.7053 9.98194C24.4746 9.36887 24.1128 8.81355 23.6453 8.35475C23.1865 7.88726 22.6311 7.52557 22.0181 7.29494C21.4336 7.06787 20.7659 6.91262 19.7878 6.86794C18.8081 6.82325 18.4951 6.8125 16 6.8125C13.5049 6.8125 13.1919 6.82325 12.2122 6.86812C11.2341 6.91262 10.5664 7.06787 9.98194 7.29469C9.3688 7.52545 8.81339 7.88719 8.35444 8.35469C7.8871 8.81357 7.52552 9.3689 7.29494 9.98194C7.06763 10.5664 6.91237 11.2341 6.86769 12.2122C6.823 13.1919 6.8125 13.5049 6.8125 16C6.8125 18.4951 6.823 18.8081 6.86794 19.7878Z" fill="#656565"/>
</svg>
