<svg width="272" height="80" viewBox="0 0 272 80" fill="none" xmlns="http://www.w3.org/2000/svg">
<path d="M73.5377 34.5733V50.84C73.5377 51.9422 73.7866 52.7422 74.2843 53.24C74.8177 53.7022 75.7066 53.9333 76.951 53.9333H80.6843V59H75.8843C73.1466 59 71.0488 58.36 69.591 57.08C68.1332 55.8 67.4043 53.72 67.4043 50.84V34.5733H63.9377V29.6133H67.4043V22.3067H73.5377V29.6133H80.6843V34.5733H73.5377ZM101.488 29.1333C103.728 29.1333 105.719 29.6133 107.461 30.5733C109.239 31.5333 110.626 32.9556 111.621 34.84C112.653 36.7244 113.168 39 113.168 41.6667V59H107.141V42.5733C107.141 39.9422 106.484 37.9333 105.168 36.5467C103.853 35.1244 102.057 34.4133 99.7814 34.4133C97.5059 34.4133 95.6925 35.1244 94.3414 36.5467C93.0259 37.9333 92.3681 39.9422 92.3681 42.5733V59H86.2881V19.5333H92.3681V33.0267C93.3992 31.7822 94.697 30.8222 96.2614 30.1467C97.8614 29.4711 99.6036 29.1333 101.488 29.1333ZM118.897 44.1733C118.897 41.2222 119.501 38.6089 120.71 36.3333C121.955 34.0578 123.626 32.2978 125.724 31.0533C127.857 29.7733 130.204 29.1333 132.764 29.1333C135.075 29.1333 137.084 29.5956 138.79 30.52C140.532 31.4089 141.919 32.5289 142.95 33.88V29.6133H149.084V59H142.95V54.6267C141.919 56.0133 140.515 57.1689 138.737 58.0933C136.959 59.0178 134.932 59.48 132.657 59.48C130.132 59.48 127.821 58.84 125.724 57.56C123.626 56.2444 121.955 54.4311 120.71 52.12C119.501 49.7733 118.897 47.1244 118.897 44.1733ZM142.95 44.28C142.95 42.2533 142.524 40.4933 141.67 39C140.852 37.5067 139.768 36.3689 138.417 35.5867C137.066 34.8044 135.608 34.4133 134.044 34.4133C132.479 34.4133 131.021 34.8044 129.67 35.5867C128.319 36.3333 127.217 37.4533 126.363 38.9467C125.546 40.4044 125.137 42.1467 125.137 44.1733C125.137 46.2 125.546 47.9778 126.363 49.5067C127.217 51.0356 128.319 52.2089 129.67 53.0267C131.057 53.8089 132.515 54.2 134.044 54.2C135.608 54.2 137.066 53.8089 138.417 53.0267C139.768 52.2444 140.852 51.1067 141.67 49.6133C142.524 48.0844 142.95 46.3067 142.95 44.28ZM163.149 33.9867C164.18 32.5644 165.585 31.4089 167.363 30.52C169.176 29.5956 171.185 29.1333 173.389 29.1333C175.985 29.1333 178.332 29.7556 180.429 31C182.527 32.2444 184.18 34.0222 185.389 36.3333C186.598 38.6089 187.203 41.2222 187.203 44.1733C187.203 47.1244 186.598 49.7733 185.389 52.12C184.18 54.4311 182.509 56.2444 180.376 57.56C178.278 58.84 175.949 59.48 173.389 59.48C171.114 59.48 169.087 59.0356 167.309 58.1467C165.567 57.2578 164.18 56.12 163.149 54.7333V59H157.069V19.5333H163.149V33.9867ZM181.016 44.1733C181.016 42.1467 180.589 40.4044 179.736 38.9467C178.918 37.4533 177.816 36.3333 176.429 35.5867C175.078 34.8044 173.62 34.4133 172.056 34.4133C170.527 34.4133 169.069 34.8044 167.683 35.5867C166.332 36.3689 165.229 37.5067 164.376 39C163.558 40.4933 163.149 42.2533 163.149 44.28C163.149 46.3067 163.558 48.0844 164.376 49.6133C165.229 51.1067 166.332 52.2444 167.683 53.0267C169.069 53.8089 170.527 54.2 172.056 54.2C173.62 54.2 175.078 53.8089 176.429 53.0267C177.816 52.2089 178.918 51.0356 179.736 49.5067C180.589 47.9778 181.016 46.2 181.016 44.1733ZM208.415 29.1333C210.655 29.1333 212.646 29.6133 214.388 30.5733C216.166 31.5333 217.553 32.9556 218.548 34.84C219.58 36.7244 220.095 39 220.095 41.6667V59H214.068V42.5733C214.068 39.9422 213.411 37.9333 212.095 36.5467C210.78 35.1244 208.984 34.4133 206.708 34.4133C204.433 34.4133 202.62 35.1244 201.268 36.5467C199.953 37.9333 199.295 39.9422 199.295 42.5733V59H193.215V19.5333H199.295V33.0267C200.326 31.7822 201.624 30.8222 203.188 30.1467C204.788 29.4711 206.531 29.1333 208.415 29.1333ZM240.597 59.48C237.824 59.48 235.317 58.8578 233.077 57.6133C230.837 56.3333 229.077 54.5556 227.797 52.28C226.517 49.9689 225.877 47.3022 225.877 44.28C225.877 41.2933 226.535 38.6444 227.851 36.3333C229.166 34.0222 230.962 32.2444 233.237 31C235.513 29.7556 238.055 29.1333 240.864 29.1333C243.673 29.1333 246.215 29.7556 248.491 31C250.766 32.2444 252.562 34.0222 253.877 36.3333C255.193 38.6444 255.851 41.2933 255.851 44.28C255.851 47.2667 255.175 49.9156 253.824 52.2267C252.473 54.5378 250.624 56.3333 248.277 57.6133C245.966 58.8578 243.406 59.48 240.597 59.48ZM240.597 54.2C242.162 54.2 243.619 53.8267 244.971 53.08C246.357 52.3333 247.477 51.2133 248.331 49.72C249.184 48.2267 249.611 46.4133 249.611 44.28C249.611 42.1467 249.202 40.3511 248.384 38.8933C247.566 37.4 246.482 36.28 245.131 35.5333C243.779 34.7867 242.322 34.4133 240.757 34.4133C239.193 34.4133 237.735 34.7867 236.384 35.5333C235.068 36.28 234.019 37.4 233.237 38.8933C232.455 40.3511 232.064 42.1467 232.064 44.28C232.064 47.4444 232.864 49.8978 234.464 51.64C236.099 53.3467 238.144 54.2 240.597 54.2Z" fill="white"/>
<path d="M264.314 59.3733C263.212 59.3733 262.288 59 261.541 58.2533C260.794 57.5067 260.421 56.5822 260.421 55.48C260.421 54.3778 260.794 53.4533 261.541 52.7067C262.288 51.96 263.212 51.5867 264.314 51.5867C265.381 51.5867 266.288 51.96 267.034 52.7067C267.781 53.4533 268.154 54.3778 268.154 55.48C268.154 56.5822 267.781 57.5067 267.034 58.2533C266.288 59 265.381 59.3733 264.314 59.3733Z" fill="#FF5112"/>
<path d="M8.95753 17.1428V23.3205H43.2432C43.2432 19.9087 40.4774 17.1428 37.0656 17.1428H8.95753Z" fill="white"/>
<path d="M37.0656 23.3205V35.6757C40.4774 35.6757 43.2432 32.9099 43.2432 29.4981V23.3205H37.0656Z" fill="white"/>
<path d="M18.5328 25.7915V56.6795C18.5328 60.0913 21.2986 62.8571 24.7104 62.8571V25.7915H18.5328Z" fill="white"/>
<path d="M26.2548 38.1467V44.3243H43.2432C43.2432 40.9125 40.4774 38.1467 37.0656 38.1467H26.2548Z" fill="white"/>
<path d="M24.7104 56.6795V62.8571H37.0656C40.4774 62.8571 43.2432 60.0913 43.2432 56.6795H24.7104Z" fill="white"/>
<path d="M37.0656 44.3243V56.6795H43.2432V44.3243H37.0656Z" fill="white"/>
<path d="M5.55985 38.1467C5.55985 41.5585 8.32565 44.3243 11.7375 44.3243H18.5328V38.1467H5.55985Z" fill="white"/>
<path d="M0 17.1428H12.973V23.3205H6.17761C2.76581 23.3205 0 20.5546 0 17.1428Z" fill="white"/>
</svg>
